inDegrees=yes
name=ik_S53_A01_T02
DataType=double
version=3
OpenSimVersion=4.3-2021-08-27-4bc7ad9
endheader
time	pelvis_tilt	pelvis_list	pelvis_rotation	pelvis_tx	pelvis_ty	pelvis_tz	hip_flexion_r	hip_adduction_r	hip_rotation_r	knee_angle_r	knee_angle_r_beta	ankle_angle_r	subtalar_angle_r	mtp_angle_r	hip_flexion_l	hip_adduction_l	hip_rotation_l	knee_angle_l	knee_angle_l_beta	ankle_angle_l	subtalar_angle_l	mtp_angle_l	lumbar_extension	lumbar_bending	lumbar_rotation	arm_flex_r	arm_add_r	arm_rot_r	elbow_flex_r	pro_sup_r	wrist_flex_r	wrist_dev_r	arm_flex_l	arm_add_l	arm_rot_l	elbow_flex_l	pro_sup_l	wrist_flex_l	wrist_dev_l
24.91999999999956	-0.1983355019838299	5.027185407065732	63.28504046660778	0	0.9399999999999999	0	5.176440535522704	-6.830628063506557	-10.08941955774499	25.88792896852618	0.4518295970232013	0	0	0	-2.06474739611573	-2.057459938728265	9.859646881712942	2.140552621810428	0.03735969106278896	0	0	0	0	0	0	42.52223520844768	-42.52223520844768	4.966802288475324	84.52229783218428	85.03319798455361	0	0	42.52223520844768	-42.52223520844768	4.966802288475324	84.52229783218428	85.03319798454702	0	0
24.93999999999956	-0.1976960481066158	5.017536141176454	63.27631437001256	0	0.9399999999999999	0	5.250753245381835	-6.699074729035717	-9.977668498401334	25.36803515340286	0.4427557381885447	0	0	0	-2.14372355870911	-2.354435326473415	9.295049096037493	0.5520391581869447	0.009634900910299995	0	0	0	0	0	0	42.52270060904347	-42.52270060904347	4.966814844013283	84.52247850668583	85.03318542901616	0	0	42.52270060904347	-42.52270060904347	4.966814844013283	84.52247850668583	85.03318542900955	0	0
24.95999999999956	-0.1874239599871263	4.904926710034387	64.46927629534102	0	0.9399999999999999	0	5.239350233244542	-6.671281772104182	-11.1729921793458	24.79854474409749	0.4328162554876358	0	0	0	-2.011793114698808	-2.459326903503095	10.48729271236481	0.524814994115417	0.009159749611148692	0	0	0	0	0	0	42.52337444025401	-42.52337444025401	4.966832986122411	84.52273957204237	85.03316728690781	0	0	42.52337444025401	-42.52337444025401	4.966832986122411	84.52273957204237	85.0331672869012	0	0
24.97999999999956	0.1563972468711878	3.577784505773402	68.93370028343001	0	0.9399999999999999	0	2.010953967711891	-3.070460338401201	-11.67195346322896	19.72273074664555	0.3442265890132843	0	0	0	-0.4628057461171908	-4.280182446396248	10.1198389384857	1.48163300690465	0.02585937427671002	0	0	0	0	0	0	42.53015738006019	-42.53015738006019	4.966991830780012	84.52502532568684	85.03300844225642	0	0	42.53015738006019	-42.53015738006019	4.966991830780012	84.52502532568684	85.03300844224984	0	0
24.99999999999956	0.5572495153323052	1.934284589573903	71.74365456819659	0	0.9399999999999999	0	2.975464682917211	-1.749640955247696	-13.44390678554667	18.72249371390194	0.32676915949153	0	0	0	1.25271458335185	-5.797534659507789	10.16636822966382	0.3308407639434177	0.005774260630625977	0	0	0	0	0	0	42.53713209976461	-42.53713209976461	4.967155171013092	84.52737576999345	85.03284510202973	0	0	42.53713209976461	-42.53713209976461	4.967155171013092	84.52737576999345	85.03284510202317	0	0
25.01999999999956	0.7124747713452054	1.326564869988366	72.59230280961751	0	0.9399999999999999	0	3.177246012514007	-1.01241662637318	-12.94774452223522	17.65926192226618	0.3082122640156078	0	0	0	2.128989254917009	-6.518340244423335	8.516660232610322	0.1449762667153786	0.002530313191432822	0	0	0	0	0	0	42.54145268253193	-42.54145268253193	4.967257946722603	84.52885470061013	85.03274232632427	0	0	42.54145268253193	-42.54145268253193	4.967257946722603	84.52885470061013	85.03274232631779	0	0
25.03999999999956	0.9904124072279994	0.2010691747188434	74.25308485149131	0	0.9399999999999999	0	3.895093334674276	-0.112895857783565	-13.16718818303543	16.8066321057375	0.2933310664165071	0	0	0	3.685853066281925	-7.486369377796768	7.507106075782362	0.1557635719331031	0.002718587184899677	0	0	0	0	0	0	42.54726759016118	-42.54726759016118	4.967393623557504	84.53080707159434	85.03260664949471	0	0	42.54726759016118	-42.54726759016118	4.967393623557504	84.53080707159434	85.03260664948826	0	0
25.05999999999955	1.19440689405186	-0.540459317321523	75.7732989578618	0	0.9399999999999999	0	4.218748122434183	0.4589127750201337	-13.18646790651737	16.17042181766223	0.282227102154532	0	0	0	4.935363147363436	-8.254482155091775	6.098385059118394	0.2576478846326784	0.004496803897638739	0	0	0	0	0	0	42.55265944514839	-42.55265944514839	4.967519161299796	84.53261354207365	85.03248111175735	0	0	42.55265944514839	-42.55265944514839	4.967519161299796	84.53261354207365	85.03248111175091	0	0
25.07999999999955	1.330109580861481	-0.7025348165470512	77.19854704666565	0	0.9399999999999999	0	4.343529003056317	1.164627819992024	-12.44716670333155	15.18039514497753	0.2649478770336198	0	0	0	5.648922928745829	-8.724048506902397	4.381054983119576	0.5904618630994461	0.01030550361854535	0	0	0	0	0	0	42.55753928459875	-42.55753928459875	4.967633471058689	84.53425844418271	85.03236680200291	0	0	42.55753928459875	-42.55753928459875	4.967633471058689	84.53425844418271	85.03236680199652	0	0
25.09999999999955	1.524935704029031	0.5245292169773216	79.88198115045205	0	0.9399999999999999	0	3.033825392220661	1.33687561590619	-13.20337034779172	14.64126069199597	0.2555382057181531	0	0	0	5.183339872359333	-8.860994146180253	3.68650308194878	1.16756037736793	0.02037777280089787	0	0	0	0	0	0	42.56354037412889	-42.56354037412889	4.967772302459129	84.53625620742871	85.03222797060786	0	0	42.56354037412889	-42.56354037412889	4.967772302459129	84.53625620742871	85.03222797060153	0	0
